<?xml version="1.0" encoding="utf-8"?>
<!-- Generator: Adobe Illustrator 27.4.0, SVG Export Plug-In . SVG Version: 6.00 Build 0)  -->
<svg version="1.1" id="Layer_1" xmlns="http://www.w3.org/2000/svg" xmlns:xlink="http://www.w3.org/1999/xlink" x="0px" y="0px"
	 width="60px" height="60px" viewBox="0 0 60 60" style="enable-background:new 0 0 60 60;" xml:space="preserve">
<style type="text/css">
	.st0{fill:#E81D25;}
	.st1{fill:none;}
	.st2{fill:#FFFFFF;}
	.st3{fill:none;stroke:#FFFFFF;stroke-width:0.5;stroke-miterlimit:10;}
</style>
<g>
	<path class="st0" d="M58,60H2c-1.1,0-2-0.9-2-2V2c0-1.1,0.9-2,2-2h56c1.1,0,2,0.9,2,2v56C60,59.1,59.1,60,58,60z"/>
</g>
<g>
	<rect x="5" y="13.1" class="st1" width="50" height="32.9"/>
	<path class="st2" d="M5.4,28.6l8-7.9c0.7-0.7,1-1.3,1-2.2c0-1.2-1-2.2-2.3-2.2c-1.4,0-2.4,1.1-2.4,2.6H6.1c0-3.4,2.7-6.1,6.1-6.1
		c3.2,0,5.9,2.5,5.9,5.7c0,1.8-0.9,3.3-2.3,4.7l-4.4,4.4h7.1v3.6H5.4V28.6z"/>
	<path class="st2" d="M20.1,22.1c0-2.1,0-2.9,0.1-3.8c0.4-3.3,3.1-5.6,6.7-5.6c3.6,0,6.3,2.2,6.7,5.6c0.1,0.8,0.1,1.6,0.1,3.8
		c0,2.1,0,3-0.1,3.8c-0.4,3.3-3.1,5.6-6.7,5.6c-3.6,0-6.3-2.2-6.7-5.6C20.1,25.1,20.1,24.3,20.1,22.1z M26.9,27.8
		c1.5,0,2.6-0.9,2.7-2.4c0.1-0.6,0.1-1.5,0.1-3.4c0-1.8,0-2.6-0.1-3.2c-0.2-1.5-1.2-2.5-2.7-2.5c-1.5,0-2.6,1-2.7,2.5
		c-0.1,0.6-0.1,1.4-0.1,3.2c0,1.8,0,2.7,0.1,3.4C24.3,26.9,25.4,27.8,26.9,27.8z"/>
	<path class="st2" d="M35.4,16.8c0-2.2,1.8-4,4.1-4s4.1,1.8,4.1,4c0,2.2-1.8,4-4.1,4S35.4,19,35.4,16.8z M49,13.1h3.5L40.2,31.2
		h-3.5L49,13.1z M40.8,16.8c0-0.8-0.6-1.4-1.3-1.4c-0.7,0-1.3,0.6-1.3,1.4c0,0.8,0.5,1.4,1.3,1.4C40.2,18.1,40.8,17.5,40.8,16.8z
		 M49.7,23.5c2.3,0,4.1,1.8,4.1,4c0,2.2-1.8,4-4.1,4s-4.2-1.8-4.2-4C45.5,25.3,47.4,23.5,49.7,23.5z M49.7,28.9
		c0.7,0,1.3-0.6,1.3-1.4c0-0.8-0.6-1.4-1.3-1.4c-0.8,0-1.3,0.6-1.3,1.4C48.4,28.3,49,28.9,49.7,28.9z"/>
	<path class="st2" d="M5.7,35h2.2v5.7l2.4-2.8h2.5l-3,3.4l3.2,4.1h-2.5l-2.1-2.7l-0.6,0.7v2.1H5.7V35z"/>
	<path class="st2" d="M17.1,37.6c2.3,0,4.1,1.7,4.1,3.9s-1.8,3.9-4.1,3.9c-2.3,0-4.1-1.7-4.1-3.9S14.8,37.6,17.1,37.6z M17.1,43.4
		c1.1,0,1.9-0.9,1.9-1.9c0-1.1-0.9-1.9-1.9-1.9c-1.1,0-1.9,0.9-1.9,1.9C15.1,42.6,16,43.4,17.1,43.4z"/>
	<path class="st2" d="M22.3,37.8h2.2v1c0.3-0.8,1.1-1.2,2.1-1.2c0.2,0,0.5,0,0.6,0v2.1c-0.2,0-0.5-0.1-0.7-0.1c-1.2,0-2,0.7-2,1.9
		v3.6h-2.2V37.8z"/>
	<path class="st2" d="M28.8,39.8h-1v-2h1V35h2.1v2.8h1.6v2h-1.6v2.6c0,0.7,0.3,1,0.9,1c0.2,0,0.4,0,0.6-0.1v1.9
		c-0.2,0.1-0.7,0.1-1.1,0.1c-1.1,0-2.6-0.3-2.6-2.6V39.8z"/>
	<path class="st2" d="M33.3,35.9c0-0.7,0.6-1.2,1.2-1.2c0.7,0,1.2,0.5,1.2,1.2c0,0.7-0.6,1.2-1.2,1.2C33.9,37.2,33.3,36.6,33.3,35.9
		z M33.5,37.8h2.2v7.4h-2.2V37.8z"/>
	<path class="st2" d="M37.2,37.8h2.2v0.9c0.3-0.6,1.1-1.1,2.2-1.1c1.8,0,2.8,1.2,2.8,3.1v4.5h-2.2V41c0-0.9-0.5-1.4-1.4-1.4
		c-0.8,0-1.5,0.6-1.5,1.5v4.2h-2.2V37.8z"/>
	<path class="st2" d="M49.1,37.7c1.1,0,2,0.5,2.2,1.1v-1h2.2V44c0,1.5-0.2,2.8-1.3,3.6c-0.7,0.5-1.6,0.9-2.7,0.9
		c-1.4,0-2.6-0.3-3.6-1l1-1.6c0.7,0.4,1.4,0.7,2.3,0.7c0.6,0,1.1-0.1,1.5-0.4c0.6-0.4,0.6-1.1,0.6-1.6v-0.2
		c-0.3,0.5-1.2,0.9-2.3,0.9c-2.1,0-3.7-1.6-3.7-3.7C45.4,39.4,47,37.7,49.1,37.7z M49.5,43.3c1.1,0,1.9-0.8,1.9-1.8
		c0-1-0.9-1.9-1.9-1.9c-1.1,0-1.9,0.8-1.9,1.9C47.6,42.5,48.4,43.3,49.5,43.3z"/>
</g>
</svg>
