<?xml version="1.0" encoding="utf-8"?>
<!-- Generator: Adobe Illustrator 27.2.0, SVG Export Plug-In . SVG Version: 6.00 Build 0)  -->
<svg version="1.1" id="Layer_1" xmlns="http://www.w3.org/2000/svg" xmlns:xlink="http://www.w3.org/1999/xlink" x="0px" y="0px"
	 width="60px" height="60px" viewBox="0 0 60 60" style="enable-background:new 0 0 60 60;" xml:space="preserve">
<style type="text/css">
	.st0{fill:#E81D25;}
	.st1{fill:none;}
	.st2{fill:#FFFFFF;}
	.st3{fill:none;stroke:#FFFFFF;stroke-width:0.5;stroke-miterlimit:10;}
</style>
<g>
	<path class="st0" d="M58,60H2c-1.1,0-2-0.9-2-2V2c0-1.1,0.9-2,2-2h56c1.1,0,2,0.9,2,2v56C60,59.1,59.1,60,58,60z"/>
</g>
<g>
	<rect x="6.5" y="12.1" class="st1" width="47" height="35.9"/>
	<path class="st2" d="M8,29.4l8.9-8.8c0.7-0.7,1.2-1.5,1.2-2.5c0-1.4-1.2-2.5-2.6-2.5c-1.5,0-2.7,1.3-2.7,2.9h-4
		c0-3.8,3-6.8,6.8-6.8c3.6,0,6.6,2.8,6.6,6.3c0,2-1,3.7-2.6,5.2l-5,4.9h7.9v4.1H8V29.4z"/>
	<path class="st2" d="M28.2,24.1h-4.3v-3.7h4.3v-4.6h4.1v4.6h4.3v3.7h-4.3v4.5h-4.1V24.1z"/>
	<path class="st2" d="M37.2,29.4l8.9-8.8c0.7-0.7,1.2-1.5,1.2-2.5c0-1.4-1.2-2.5-2.6-2.5c-1.5,0-2.7,1.3-2.7,2.9h-4
		c0-3.8,3-6.8,6.8-6.8c3.6,0,6.6,2.8,6.6,6.3c0,2-1,3.7-2.6,5.2l-5,4.9h7.9v4.1H37.2V29.4z"/>
	<path class="st2" d="M12.5,38.1c1.4,0,2.4,0.6,2.7,1.3v-1.2h2.7v7.6c0,1.9-0.3,3.4-1.6,4.4c-0.8,0.6-2,1-3.3,1
		c-1.7,0-3.2-0.4-4.4-1.3l1.3-1.9c0.8,0.5,1.7,0.9,2.8,0.9c0.7,0,1.4-0.2,1.9-0.5c0.7-0.5,0.8-1.3,0.8-2v-0.2
		c-0.4,0.6-1.4,1.1-2.8,1.1c-2.6,0-4.5-2-4.5-4.6C8,40.2,9.9,38.1,12.5,38.1z M13,45.1c1.3,0,2.4-1,2.4-2.2c0-1.3-1.1-2.3-2.4-2.3
		c-1.3,0-2.3,1-2.3,2.3C10.7,44.1,11.7,45.1,13,45.1z"/>
	<path class="st2" d="M19.3,38.3H22v1.2c0.4-0.9,1.4-1.4,2.6-1.4c0.3,0,0.6,0,0.7,0.1v2.5c-0.3-0.1-0.6-0.1-0.9-0.1
		c-1.5,0-2.4,0.9-2.4,2.4v4.4h-2.7V38.3z"/>
	<path class="st2" d="M25.2,44.9c0-1.9,1.2-2.8,4.3-3.3c1.3-0.2,1.5-0.2,1.5-0.6v-0.1c0-0.4-0.3-0.8-1.4-0.8c-1,0-1.9,0.5-2.6,1.2
		l-1.4-1.5c1-1.2,2.4-1.9,4.1-1.9c2.6,0,4,1.1,4,3.1v3.3c0,0.7,0.3,0.7,0.7,0.7h0.1v2.1c-0.3,0.2-0.7,0.2-1.1,0.2
		c-0.8,0-1.1-0.2-1.3-0.4c-0.2-0.2-0.3-0.4-0.4-0.6c-0.7,0.8-1.9,1.1-3.2,1.1C26.4,47.6,25.2,46.6,25.2,44.9z M31.1,44v-0.8
		c-0.3,0.2-0.9,0.3-1.9,0.4c-0.9,0.2-1.4,0.4-1.4,1c0,0.5,0.4,0.8,1.1,0.8C30.2,45.5,31.1,45,31.1,44z"/>
	<path class="st2" d="M35.6,40.7h-1.2v-2.4h1.2v-3.5h2.6v3.5h2v2.4h-2V44c0,0.9,0.4,1.2,1.2,1.2c0.2,0,0.5,0,0.7-0.1v2.4
		c-0.3,0.1-0.8,0.1-1.3,0.1c-1.3,0-3.1-0.4-3.1-3.2V40.7z"/>
	<path class="st2" d="M40.9,36c0-0.9,0.7-1.5,1.5-1.5c0.8,0,1.5,0.7,1.5,1.5c0,0.8-0.7,1.5-1.5,1.5C41.6,37.5,40.9,36.8,40.9,36z
		 M41.1,38.3h2.7v9.1h-2.7V38.3z"/>
	<path class="st2" d="M46,44.3c0.5,0.6,1.4,1,2.5,1c1,0,1.4-0.3,1.4-0.7c0-0.6-1.2-0.7-2.6-1.1c-1.3-0.4-2.1-1.2-2.1-2.5
		c0-1.9,1.7-2.9,3.5-2.9c1.6,0,2.7,0.6,3.3,1.2L50.8,41c-0.4-0.3-1.1-0.7-2.1-0.7c-0.6,0-0.9,0.3-0.9,0.6c0,0.6,0.7,0.5,2.5,1.1
		c1.6,0.6,2.2,1.4,2.2,2.6c0,1.7-1.2,3.1-4,3.1c-2,0-3.3-0.8-4-1.6L46,44.3z"/>
</g>
</svg>
