<?xml version="1.0" encoding="utf-8"?>
<!-- Generator: Adobe Illustrator 27.7.0, SVG Export Plug-In . SVG Version: 6.00 Build 0)  -->
<svg version="1.1" id="Layer_1" xmlns="http://www.w3.org/2000/svg" xmlns:xlink="http://www.w3.org/1999/xlink" x="0px" y="0px"
	 width="60px" height="60px" viewBox="0 0 60 60" style="enable-background:new 0 0 60 60;" xml:space="preserve">
<style type="text/css">
	.st0{fill:#E81D25;}
	.st1{fill:none;}
	.st2{fill:#FFFFFF;}
	.st3{fill:none;stroke:#FFFFFF;stroke-width:0.5;stroke-miterlimit:10;}
	.st4{fill:#323232;}
</style>
<g>
	<path class="st0" d="M58,60H2c-1.1,0-2-0.9-2-2V2c0-1.1,0.9-2,2-2h56c1.1,0,2,0.9,2,2v56C60,59.1,59.1,60,58,60z"/>
</g>
<g>
	<rect x="5" y="14.1" class="st1" width="50" height="31.9"/>
	<path class="st2" d="M8.5,26.6c0.5,1.1,1.7,1.9,3.1,1.9c1.8,0,3-1.1,3-2.8c0-1.6-1.2-2.7-2.9-2.7c-0.8,0-1.7,0.2-2.2,0.8l-2.9-0.8
		l1.8-9h8.9v3.6h-6l-0.5,2.4c0.5-0.2,1-0.2,1.6-0.2c3.8,0,6.3,2.4,6.3,6c0,3.8-2.8,6.3-6.9,6.3c-2.8,0-5.2-1.5-6.2-3.6L8.5,26.6z"/>
	<path class="st2" d="M20.3,22.9c0-2.1,0-2.9,0.1-3.7c0.4-3.3,3-5.5,6.6-5.5c3.6,0,6.2,2.2,6.6,5.5c0.1,0.8,0.1,1.6,0.1,3.7
		s0,2.9-0.1,3.7c-0.4,3.3-3,5.5-6.6,5.5c-3.6,0-6.2-2.2-6.6-5.5C20.3,25.9,20.3,25,20.3,22.9z M26.9,28.6c1.5,0,2.5-0.9,2.7-2.3
		c0.1-0.6,0.1-1.5,0.1-3.3c0-1.8,0-2.5-0.1-3.2c-0.2-1.5-1.2-2.4-2.7-2.4c-1.5,0-2.5,1-2.7,2.4c-0.1,0.6-0.1,1.4-0.1,3.2
		c0,1.8,0,2.7,0.1,3.3C24.4,27.6,25.5,28.6,26.9,28.6z"/>
	<path class="st2" d="M35.3,17.7c0-2.2,1.8-3.9,4.1-3.9c2.2,0,4.1,1.7,4.1,3.9s-1.8,3.9-4.1,3.9C37.1,21.6,35.3,19.9,35.3,17.7z
		 M48.6,14.1h3.5L40,31.8h-3.5L48.6,14.1z M40.6,17.7c0-0.7-0.6-1.4-1.2-1.4c-0.7,0-1.2,0.6-1.2,1.4c0,0.8,0.5,1.4,1.2,1.4
		C40,19,40.6,18.5,40.6,17.7z M49.3,24.3c2.2,0,4,1.7,4,3.9c0,2.2-1.8,3.9-4,3.9c-2.2,0-4.1-1.7-4.1-3.9
		C45.2,26,47.1,24.3,49.3,24.3z M49.3,29.6c0.7,0,1.2-0.6,1.2-1.4c0-0.7-0.6-1.4-1.2-1.4c-0.7,0-1.3,0.6-1.3,1.4
		C48.1,29,48.6,29.6,49.3,29.6z"/>
	<path class="st2" d="M5.7,35.6h2.2v5.7l2.4-2.8h2.5l-3,3.4l3.2,4.1h-2.5l-2.1-2.7l-0.6,0.7v2.1H5.7V35.6z"/>
	<path class="st2" d="M17.1,38.2c2.3,0,4.1,1.7,4.1,3.9s-1.8,3.9-4.1,3.9c-2.3,0-4.1-1.7-4.1-3.9S14.8,38.2,17.1,38.2z M17.1,44.1
		c1.1,0,1.9-0.9,1.9-1.9c0-1.1-0.9-1.9-1.9-1.9c-1.1,0-1.9,0.9-1.9,1.9C15.1,43.2,16,44.1,17.1,44.1z"/>
	<path class="st2" d="M22.3,38.4h2.2v1c0.3-0.8,1.1-1.2,2.1-1.2c0.2,0,0.5,0,0.6,0v2.1c-0.2,0-0.5-0.1-0.7-0.1c-1.2,0-2,0.7-2,1.9
		v3.6h-2.2V38.4z"/>
	<path class="st2" d="M28.8,40.4h-1v-2h1v-2.8h2.1v2.8h1.6v2h-1.6v2.6c0,0.7,0.3,1,0.9,1c0.2,0,0.4,0,0.6-0.1v1.9
		C32.1,46,31.7,46,31.3,46c-1.1,0-2.6-0.3-2.6-2.6V40.4z"/>
	<path class="st2" d="M33.3,36.6c0-0.7,0.6-1.2,1.2-1.2c0.7,0,1.2,0.5,1.2,1.2c0,0.7-0.6,1.2-1.2,1.2C33.9,37.8,33.3,37.3,33.3,36.6
		z M33.5,38.4h2.2v7.4h-2.2V38.4z"/>
	<path class="st2" d="M37.2,38.4h2.2v0.9c0.3-0.6,1.1-1.1,2.2-1.1c1.8,0,2.8,1.2,2.8,3.1v4.5h-2.2v-4.2c0-0.9-0.5-1.4-1.4-1.4
		c-0.8,0-1.5,0.6-1.5,1.5v4.2h-2.2V38.4z"/>
	<path class="st2" d="M49.1,38.3c1.1,0,2,0.5,2.2,1.1v-1h2.2v6.2c0,1.5-0.2,2.8-1.3,3.6c-0.7,0.5-1.6,0.9-2.7,0.9
		c-1.4,0-2.6-0.3-3.6-1l1-1.6c0.7,0.4,1.4,0.7,2.3,0.7c0.6,0,1.1-0.1,1.5-0.4c0.6-0.4,0.6-1.1,0.6-1.6V45c-0.3,0.5-1.2,0.9-2.3,0.9
		c-2.1,0-3.7-1.6-3.7-3.7C45.4,40,47,38.3,49.1,38.3z M49.5,44c1.1,0,1.9-0.8,1.9-1.8c0-1-0.9-1.9-1.9-1.9c-1.1,0-1.9,0.8-1.9,1.9
		C47.6,43.2,48.4,44,49.5,44z"/>
</g>
</svg>
