<?xml version="1.0" encoding="utf-8"?>
<!-- Generator: Adobe Illustrator 27.4.0, SVG Export Plug-In . SVG Version: 6.00 Build 0)  -->
<svg version="1.1" id="Layer_1" xmlns="http://www.w3.org/2000/svg" xmlns:xlink="http://www.w3.org/1999/xlink" x="0px" y="0px"
	 width="60px" height="73px" viewBox="0 0 60 73" style="enable-background:new 0 0 60 73;" xml:space="preserve">
<style type="text/css">
	.st0{fill:#E81D25;}
	.st1{fill:none;}
	.st2{fill:#FFFFFF;}
	.st3{fill:none;stroke:#FFFFFF;stroke-width:0.5;stroke-miterlimit:10;}
	.st4{fill:#323232;}
</style>
<g>
	<path class="st0" d="M58,60H2c-1.1,0-2-0.9-2-2V2c0-1.1,0.9-2,2-2h56c1.1,0,2,0.9,2,2v56C60,59.1,59.1,60,58,60z"/>
</g>
<g>
	<path class="st4" d="M59.1,73H0.9C0.4,73,0,72.6,0,72.1V60.5h60v11.6C60,72.6,59.6,73,59.1,73z"/>
</g>
<g>
	<rect x="6.5" y="19.1" class="st1" width="47" height="20.9"/>
	<path class="st2" d="M10.2,25.3l4-6.1h4.9L15,25.4c0.1-0.1,0.5-0.1,0.8-0.1c2.8,0,6.7,2.5,6.7,6.9c0,4.1-3.4,7.3-7.7,7.3
		c-4.2,0-7.6-3.2-7.6-7.3C7.2,29.9,8.5,27.9,10.2,25.3z M14.8,35.4c1.8,0,3.2-1.5,3.2-3.2c0-1.7-1.5-3.2-3.2-3.2
		c-1.8,0-3.2,1.4-3.2,3.2C11.6,34.1,13.1,35.4,14.8,35.4z"/>
	<path class="st2" d="M24.2,24.2h13.1v3.7H24.2V24.2z M24.2,30.5h13.1v3.7H24.2V30.5z"/>
	<path class="st2" d="M41.6,33.4c0.6,1.3,1.9,2.2,3.5,2.2c2.1,0,3.5-1.2,3.5-3.1c0-1.9-1.3-3.1-3.3-3.1c-0.9,0-1.9,0.3-2.5,0.9
		l-3.3-0.9l2-10.2h10.1v4.1h-6.9L44.1,26c0.5-0.2,1.1-0.3,1.8-0.3c4.3,0,7.1,2.7,7.1,6.8c0,4.3-3.2,7.1-7.9,7.1
		c-3.2,0-5.9-1.7-7.1-4.1L41.6,33.4z"/>
</g>
<g>
	<rect x="0.9" y="63.4" class="st1" width="57.3" height="6.6"/>
	<path class="st2" d="M3,68.4c0-1,0.6-1.4,2.2-1.6c0.7-0.1,0.8-0.1,0.8-0.3v0c0-0.2-0.2-0.4-0.7-0.4c-0.5,0-1,0.2-1.3,0.6l-0.7-0.7
		C3.7,65.3,4.4,65,5.2,65c1.3,0,2,0.6,2,1.6v1.7c0,0.3,0.2,0.4,0.3,0.4h0v1.1c-0.2,0.1-0.3,0.1-0.5,0.1c-0.4,0-0.5-0.1-0.6-0.2
		c-0.1-0.1-0.2-0.2-0.2-0.3c-0.3,0.4-1,0.5-1.6,0.5C3.6,69.8,3,69.2,3,68.4z M5.9,68v-0.4c-0.1,0.1-0.5,0.1-0.9,0.2
		c-0.5,0.1-0.7,0.2-0.7,0.5c0,0.3,0.2,0.4,0.5,0.4C5.5,68.7,5.9,68.4,5.9,68z"/>
	<path class="st2" d="M8.2,63.4h1.3v6.3H8.2V63.4z"/>
	<path class="st2" d="M10.5,63.4h1.3v6.3h-1.3V63.4z"/>
	<path class="st2" d="M12.5,67.4c0-1.5,1-2.4,2.5-2.4c1.4,0,2.3,1,2.3,2.3c0,0.1,0,0.3,0,0.4h-3.4c0,0.5,0.5,0.9,1.2,0.9
		c0.5,0,0.8-0.1,1.1-0.4l0.8,0.7c-0.6,0.6-1.3,0.8-2,0.8C13.5,69.7,12.5,68.8,12.5,67.4L12.5,67.4z M16,66.8c0-0.4-0.4-0.8-1-0.8
		c-0.6,0-1.1,0.3-1.1,0.8H16z"/>
	<path class="st2" d="M17.8,67.4c0-1.5,1-2.4,2.5-2.4c1.4,0,2.3,1,2.3,2.3c0,0.1,0,0.3,0,0.4h-3.4c0,0.5,0.5,0.9,1.2,0.9
		c0.5,0,0.8-0.1,1.1-0.4l0.8,0.7c-0.6,0.6-1.3,0.8-2,0.8C18.8,69.7,17.8,68.8,17.8,67.4L17.8,67.4z M21.2,66.8c0-0.4-0.4-0.8-1-0.8
		c-0.6,0-1.1,0.3-1.1,0.8H21.2z"/>
	<path class="st2" d="M23.2,65.1h1.3v0.6c0.2-0.4,0.7-0.7,1.3-0.7c1.1,0,1.7,0.7,1.7,1.9v2.8h-1.3V67c0-0.5-0.3-0.9-0.8-0.9
		c-0.5,0-0.9,0.4-0.9,0.9v2.5h-1.3V65.1z"/>
	<path class="st2" d="M33.2,65c1.4,0,2.5,1.1,2.5,2.4c0,1.3-1.1,2.4-2.5,2.4c-1.4,0-2.5-1.1-2.5-2.4C30.7,66,31.8,65,33.2,65z
		 M33.2,68.6c0.7,0,1.2-0.5,1.2-1.2c0-0.7-0.5-1.2-1.2-1.2c-0.7,0-1.2,0.5-1.2,1.2C32,68,32.5,68.6,33.2,68.6z"/>
	<path class="st2" d="M36.4,65.1h1.3v0.6c0.2-0.4,0.7-0.7,1.3-0.7c1.1,0,1.7,0.7,1.7,1.9v2.8h-1.3V67c0-0.5-0.3-0.9-0.8-0.9
		c-0.5,0-0.9,0.4-0.9,0.9v2.5h-1.3V65.1z"/>
	<path class="st2" d="M41.7,63.4H43v6.3h-1.3V63.4z"/>
	<path class="st2" d="M43.8,64c0-0.4,0.4-0.8,0.8-0.8c0.4,0,0.8,0.3,0.8,0.8c0,0.4-0.3,0.8-0.8,0.8C44.2,64.7,43.8,64.4,43.8,64z
		 M43.9,65.1h1.3v4.5h-1.3V65.1z"/>
	<path class="st2" d="M46.1,65.1h1.3v0.6c0.2-0.4,0.7-0.7,1.3-0.7c1.1,0,1.7,0.7,1.7,1.9v2.8h-1.3V67c0-0.5-0.3-0.9-0.8-0.9
		c-0.5,0-0.9,0.4-0.9,0.9v2.5h-1.3V65.1z"/>
	<path class="st2" d="M51.2,67.4c0-1.5,1-2.4,2.5-2.4c1.4,0,2.3,1,2.3,2.3c0,0.1,0,0.3,0,0.4h-3.4c0,0.5,0.5,0.9,1.2,0.9
		c0.5,0,0.8-0.1,1.1-0.4l0.8,0.7c-0.6,0.6-1.3,0.8-2,0.8C52.2,69.7,51.2,68.8,51.2,67.4L51.2,67.4z M54.6,66.8c0-0.4-0.4-0.8-1-0.8
		c-0.6,0-1.1,0.3-1.1,0.8H54.6z"/>
</g>
</svg>
