<svg xmlns="http://www.w3.org/2000/svg" xmlns:xlink="http://www.w3.org/1999/xlink" preserveAspectRatio="xMidYMid meet" width="1280" height="720" viewBox="0 0 1280 720" style="width:100%;height:100%"><defs><animate repeatCount="indefinite" dur="3.84s" begin="0s" xlink:href="#_R_G_L_1_G" fill="freeze" attributeName="opacity" from="0" to="1" keyTimes="0;0.0199619;1" values="0;1;1" keySplines="0.167 0.167 0.833 0.833;0 0 0 0" calcMode="spline"/><animateMotion repeatCount="indefinite" dur="3.84s" begin="0s" xlink:href="#_R_G_L_1_G" fill="freeze" keyTimes="0;0.8229219;0.9322951;1" path="M-175.07 250.81 C-175.07,250.81 -175.07,250.81 -175.07,250.81 C-175.07,379.47 -175.07,894.14 -175.07,1022.81 C-175.07,1022.81 -175.07,1022.81 -175.07,1022.81 " keyPoints="0;0;1;1" keySplines="0.7 0 0.833 0.833;0.7 0 0.833 0.833;0 0 0 0" calcMode="spline"/><animateTransform repeatCount="indefinite" dur="3.84s" begin="0s" xlink:href="#_R_G_L_1_G" fill="freeze" attributeName="transform" from="1.4000000000000001 1.4000000000000001" to="1 1" type="scale" additive="sum" keyTimes="0;0.0416719;0.3802135;0.4453177;0.4973992;1" values="1.4000000000000001 1.4000000000000001;1 1;1 1;1.1500000000000001 1.1500000000000001;1 1;1 1" keySplines="0.33 0 0.833 0.833;0.167 0 0.67 1;0.33 0 0.67 1;0.33 0 0.833 0.833;0 0 0 0" calcMode="spline"/><animateTransform repeatCount="indefinite" dur="3.84s" begin="0s" xlink:href="#_R_G_L_1_G" fill="freeze" attributeName="transform" from="-416.843 81.483" to="-416.843 81.483" type="translate" additive="sum" keyTimes="0;1" values="-416.843 81.483;-416.843 81.483" keySplines="0 0 1 1" calcMode="spline"/><animateMotion repeatCount="indefinite" dur="3.84s" begin="0s" xlink:href="#_R_G_L_1_G_N_2_T_0" fill="freeze" keyTimes="0;0.0364583;0.0416667;0.046875;0.0520833;0.0572917;0.4895833;0.4947917;0.5;0.5052083;0.5104167;1" path="M-90 10 C-90,10 -90,10 -90,10 C-90,8.67 -91.33,3.33 -90,2 C-88.67,0.67 -83.33,0.67 -82,2 C-80.67,3.33 -80.67,8.67 -82,10 C-83.33,11.33 -88.67,10 -90,10 C-90,10 -90,10 -90,10 C-90,8.67 -91.33,3.33 -90,2 C-88.67,0.67 -83.33,0.67 -82,2 C-80.67,3.33 -80.67,8.67 -82,10 C-83.33,11.33 -88.67,10 -90,10 C-90,10 -90,10 -90,10 " keyPoints="0;0;0.12;0.25;0.38;0.5;0.5;0.62;0.75;0.88;1;1" keySplines="0.167 0.167 0.833 0.833;0.167 0.167 0.833 0.833;0.167 0.167 0.833 0.833;0.167 0.167 0.833 0.833;0.167 0.167 0.833 0.833;0.167 0.167 0.833 0.833;0.167 0.167 0.833 0.833;0.167 0.167 0.833 0.833;0.167 0.167 0.833 0.833;0.167 0.167 0.833 0.833;0 0 0 0" calcMode="spline"/><animateTransform repeatCount="indefinite" dur="3.84s" begin="0s" xlink:href="#_R_G_L_1_G_N_2_T_0" fill="freeze" attributeName="transform" from="0" to="0" type="rotate" additive="sum" keyTimes="0;0.0364583;0.046875;0.0572917;1" values="0;0;1;0;0" keySplines="0.167 0.167 0.833 0.833;0.167 0.167 0.833 0.833;0.167 0.167 0.833 0.833;0 0 0 0" calcMode="spline"/><animateTransform repeatCount="indefinite" dur="3.84s" begin="0s" xlink:href="#_R_G_L_1_G_N_2_T_0" fill="freeze" attributeName="transform" from="182 -72" to="182 -72" type="translate" additive="sum" keyTimes="0;1" values="182 -72;182 -72" keySplines="0 0 1 1" calcMode="spline"/><animate repeatCount="indefinite" dur="3.84s" begin="0s" xlink:href="#_R_G_L_0_G" fill="freeze" attributeName="opacity" from="0" to="1" keyTimes="0;0.021698;1" values="0;1;1" keySplines="0.167 0.167 0.833 0.833;0 0 0 0" calcMode="spline"/><animateMotion repeatCount="indefinite" dur="3.84s" begin="0s" xlink:href="#_R_G_L_0_G" fill="freeze" keyTimes="0;0.84375;0.9479167;1" path="M-209.8 -74.48 C-209.8,-74.48 -209.8,-74.48 -209.8,-74.48 C-209.8,54.18 -209.8,568.85 -209.8,697.52 C-209.8,697.52 -209.8,697.52 -209.8,697.52 " keyPoints="0;0;1;1" keySplines="0.7 0 0.833 0.833;0.7 0 0.833 0.833;0 0 0 0" calcMode="spline"/><animateTransform repeatCount="indefinite" dur="3.84s" begin="0s" xlink:href="#_R_G_L_0_G" fill="freeze" attributeName="transform" from="1.4000000000000001 1.4000000000000001" to="1 1" type="scale" additive="sum" keyTimes="0;0.0434063;0.3689271;0.4340313;0.4861145;1" values="1.4000000000000001 1.4000000000000001;1 1;1 1;1.1500000000000001 1.1500000000000001;1 1;1 1" keySplines="0.33 0 0.833 0.833;0.167 0 0.67 1;0.33 0 0.67 1;0.33 0 0.833 0.833;0 0 0 0" calcMode="spline"/><animateTransform repeatCount="indefinite" dur="3.84s" begin="0s" xlink:href="#_R_G_L_0_G" fill="freeze" attributeName="transform" from="-382.119 106.771" to="-382.119 106.771" type="translate" additive="sum" keyTimes="0;1" values="-382.119 106.771;-382.119 106.771" keySplines="0 0 1 1" calcMode="spline"/><animateMotion repeatCount="indefinite" dur="3.84s" begin="0s" xlink:href="#_R_G_L_0_G_N_2_T_0" fill="freeze" keyTimes="0;0.0364583;0.0416667;0.046875;0.0520833;0.0572917;0.4895833;0.4947917;0.5;0.5052083;0.5104167;1" path="M-90 10 C-90,10 -90,10 -90,10 C-90,8.67 -91.33,3.33 -90,2 C-88.67,0.67 -83.33,0.67 -82,2 C-80.67,3.33 -80.67,8.67 -82,10 C-83.33,11.33 -88.67,10 -90,10 C-90,10 -90,10 -90,10 C-90,8.67 -91.33,3.33 -90,2 C-88.67,0.67 -83.33,0.67 -82,2 C-80.67,3.33 -80.67,8.67 -82,10 C-83.33,11.33 -88.67,10 -90,10 C-90,10 -90,10 -90,10 " keyPoints="0;0;0.12;0.25;0.38;0.5;0.5;0.62;0.75;0.88;1;1" keySplines="0.167 0.167 0.833 0.833;0.167 0.167 0.833 0.833;0.167 0.167 0.833 0.833;0.167 0.167 0.833 0.833;0.167 0.167 0.833 0.833;0.167 0.167 0.833 0.833;0.167 0.167 0.833 0.833;0.167 0.167 0.833 0.833;0.167 0.167 0.833 0.833;0.167 0.167 0.833 0.833;0 0 0 0" calcMode="spline"/><animateTransform repeatCount="indefinite" dur="3.84s" begin="0s" xlink:href="#_R_G_L_0_G_N_2_T_0" fill="freeze" attributeName="transform" from="0" to="0" type="rotate" additive="sum" keyTimes="0;0.0364583;0.046875;0.0572917;1" values="0;0;1;0;0" keySplines="0.167 0.167 0.833 0.833;0.167 0.167 0.833 0.833;0.167 0.167 0.833 0.833;0 0 0 0" calcMode="spline"/><animateTransform repeatCount="indefinite" dur="3.84s" begin="0s" xlink:href="#_R_G_L_0_G_N_2_T_0" fill="freeze" attributeName="transform" from="182 -72" to="182 -72" type="translate" additive="sum" keyTimes="0;1" values="182 -72;182 -72" keySplines="0 0 1 1" calcMode="spline"/><animate attributeType="XML" attributeName="opacity" dur="4s" from="0" to="1" xlink:href="#time_group"/></defs><g id="_R_G"><g id="_R_G_L_2_G" transform=" scale(1.60556, 1.60556)"><rect id="_R_G_L_2_G_S" fill="#1b1b1b" width="1280" height="720"/></g><g id="_R_G_L_1_G_N_2_N_1_T_0" transform=" translate(572, 338) translate(0, 0)"><g id="_R_G_L_1_G_N_2_T_0"><g id="_R_G_L_1_G"><path id="_R_G_L_1_G_D_0_P_0" fill="#ffff00" fill-opacity="1" fill-rule="nonzero" d=" M710.99 2.81 C710.99,2.81 685.71,60.57 685.71,60.57 C685.71,60.57 733.47,60.57 733.47,60.57 C733.47,60.57 826.19,-157.35 826.19,-157.35 C826.19,-157.35 777.8,-157.35 777.8,-157.35 C777.8,-157.35 735.35,-52.45 735.35,-52.45 C735.35,-52.45 693.51,-157.35 693.51,-157.35 C693.51,-157.35 645.12,-157.35 645.12,-157.35 C645.12,-157.35 710.99,2.81 710.99,2.81z "/><path id="_R_G_L_1_G_D_1_P_0" fill="#ffff00" fill-opacity="1" fill-rule="nonzero" d=" M554.78 -33.09 C542.6,-33.09 536.36,-38.09 536.36,-47.14 C536.36,-57.13 544.17,-61.19 560.09,-64 C576.63,-66.81 587.87,-68.37 592.56,-71.18 C592.56,-71.18 592.56,-57.76 592.56,-57.76 C592.56,-41.21 576.95,-33.09 554.78,-33.09z  M546.98 4.06 C569.45,4.06 590.99,-1.25 602.86,-14.67 C604.11,-10.61 605.98,-7.49 609.73,-4.37 C613.16,-1.56 618.78,2.5 632.21,2.5 C639.07,2.5 645.32,1.87 650.94,-0.94 C650.94,-0.94 650.94,-37.78 650.94,-37.78 C650.94,-37.78 649.69,-37.78 649.69,-37.78 C644.07,-37.78 638.14,-38.09 638.14,-49.95 C638.14,-49.95 638.14,-108.02 638.14,-108.02 C638.14,-142.67 613.47,-162.03 569.14,-162.03 C539.17,-162.03 514.51,-149.54 497.96,-129.56 C497.96,-129.56 522.62,-104.27 522.62,-104.27 C534.8,-117.07 550.41,-125.19 568.52,-125.19 C586.94,-125.19 592.87,-118.32 592.87,-111.45 C592.87,-111.45 592.87,-110.2 592.87,-110.2 C592.87,-102.09 589.12,-101.78 566.02,-98.97 C511.07,-91.79 490.78,-75.55 490.78,-42.46 C490.78,-14.05 512.32,4.06 546.98,4.06z "/><path id="_R_G_L_1_G_D_2_P_0" fill="#ffff00" fill-opacity="1" fill-rule="nonzero" d=" M352.55 -78.67 C352.55,-100.84 370.03,-118.01 392.51,-118.01 C415.3,-118.01 433.72,-100.84 433.72,-78.67 C433.72,-56.51 415.3,-39.34 392.51,-39.34 C370.03,-39.34 352.55,-56.51 352.55,-78.67z  M306.03 -78.67 C306.03,-33.09 339.44,2.81 384.08,2.81 C408.12,2.81 426.54,-7.18 430.91,-20.6 C430.91,-20.6 430.91,0 430.91,0 C430.91,0 477.43,0 477.43,0 C477.43,0 477.43,-217.6 477.43,-217.6 C477.43,-217.6 430.91,-217.6 430.91,-217.6 C430.91,-217.6 430.91,-136.74 430.91,-136.74 C426.54,-150.48 408.12,-160.16 384.08,-160.16 C339.44,-160.16 306.03,-123.94 306.03,-78.67z "/><path id="_R_G_L_1_G_D_3_P_0" fill="#ffff00" fill-opacity="1" fill-rule="nonzero" d=" M243.46 0 C243.46,0 289.98,0 289.98,0 C289.98,0 289.98,-157.35 289.98,-157.35 C289.98,-157.35 243.46,-157.35 243.46,-157.35 C243.46,-157.35 243.46,0 243.46,0z  M266.56 -170.77 C281.24,-170.77 293.1,-182.32 293.1,-196.99 C293.1,-211.98 281.24,-223.53 266.56,-223.53 C252.2,-223.53 240.03,-211.98 240.03,-196.99 C240.03,-182.32 252.2,-170.77 266.56,-170.77z "/><path id="_R_G_L_1_G_D_4_P_0" fill="#ffff00" fill-opacity="1" fill-rule="nonzero" d=" M124.42 0 C124.42,0 170.94,0 170.94,0 C170.94,0 170.94,-76.8 170.94,-76.8 C170.94,-102.4 186.55,-117.7 213.08,-117.7 C219.02,-117.7 224.32,-117.07 228.69,-116.14 C228.69,-116.14 228.69,-159.84 228.69,-159.84 C226.2,-160.16 220.89,-160.78 216.52,-160.78 C194.98,-160.78 178.12,-151.73 170.94,-135.8 C170.94,-135.8 170.94,-157.35 170.94,-157.35 C170.94,-157.35 124.42,-157.35 124.42,-157.35 C124.42,-157.35 124.42,0 124.42,0z "/><path id="_R_G_L_1_G_D_5_P_0" fill="#ffff00" fill-opacity="1" fill-rule="nonzero" d=" M33.41 0 C33.41,0 78.36,0 78.36,0 C78.36,0 78.36,-115.2 78.36,-115.2 C78.36,-115.2 109.89,-115.2 109.89,-115.2 C109.89,-115.2 109.89,-157.35 109.89,-157.35 C109.89,-157.35 78.36,-157.35 78.36,-157.35 C78.36,-157.35 78.36,-164.53 78.36,-164.53 C78.36,-177.95 85.23,-183.26 99.9,-183.26 C104.59,-183.26 109.89,-183.26 113.95,-181.7 C113.95,-181.7 113.95,-220.41 113.95,-220.41 C110.21,-221.03 101.78,-221.97 95.22,-221.97 C81.48,-221.97 64.94,-221.35 51.82,-210.42 C39.65,-200.74 33.41,-187.63 33.41,-161.72 C33.41,-161.72 33.41,-157.35 33.41,-157.35 C33.41,-157.35 7.49,-157.35 7.49,-157.35 C7.49,-157.35 7.49,-115.2 7.49,-115.2 C7.49,-115.2 33.41,-115.2 33.41,-115.2 C33.41,-115.2 33.41,0 33.41,0z "/></g></g></g><g id="_R_G_L_0_G_N_2_N_1_T_0" transform=" translate(572, 338) translate(0, 0)"><g id="_R_G_L_0_G_N_2_T_0"><g id="_R_G_L_0_G"><path id="_R_G_L_0_G_D_0_P_0" fill="#ffff00" fill-opacity="1" fill-rule="nonzero" d=" M590.97 0 C590.97,0 637.49,0 637.49,0 C637.49,0 637.49,-44.02 637.49,-44.02 C637.49,-44.02 650.6,-58.07 650.6,-58.07 C650.6,-58.07 696.18,0 696.18,0 C696.18,0 748.63,0 748.63,0 C748.63,0 680.57,-86.17 680.57,-86.17 C680.57,-86.17 743.32,-157.35 743.32,-157.35 C743.32,-157.35 689.31,-157.35 689.31,-157.35 C689.31,-157.35 637.49,-97.4 637.49,-97.4 C637.49,-97.4 637.49,-217.6 637.49,-217.6 C637.49,-217.6 590.97,-217.6 590.97,-217.6 C590.97,-217.6 590.97,0 590.97,0z "/><path id="_R_G_L_0_G_D_1_P_0" fill="#ffff00" fill-opacity="1" fill-rule="nonzero" d=" M426.62 -78.98 C426.62,-30.91 465.33,4.06 513.41,4.06 C536.83,4.06 558.99,-3.43 578.97,-25.29 C578.97,-25.29 549.63,-54.32 549.63,-54.32 C539.95,-44.02 529.65,-38.09 513.41,-38.09 C490.93,-38.09 473.14,-55.26 473.14,-78.98 C473.14,-103.02 490.93,-120.19 513.41,-120.19 C529.65,-120.19 539.95,-114.26 549.63,-103.96 C549.63,-103.96 578.97,-132.99 578.97,-132.99 C558.99,-154.85 536.83,-162.34 513.41,-162.34 C465.33,-162.34 426.62,-127.06 426.62,-78.98z "/><path id="_R_G_L_0_G_D_2_P_0" fill="#ffff00" fill-opacity="1" fill-rule="nonzero" d=" M326.93 -33.09 C314.75,-33.09 308.51,-38.09 308.51,-47.14 C308.51,-57.13 316.32,-61.19 332.24,-64 C348.78,-66.81 360.02,-68.37 364.71,-71.18 C364.71,-71.18 364.71,-57.76 364.71,-57.76 C364.71,-41.21 349.1,-33.09 326.93,-33.09z  M319.13 4.06 C341.6,4.06 363.15,-1.25 375.01,-14.67 C376.26,-10.61 378.13,-7.49 381.88,-4.37 C385.31,-1.56 390.93,2.5 404.36,2.5 C411.22,2.5 417.47,1.87 423.09,-0.94 C423.09,-0.94 423.09,-37.78 423.09,-37.78 C423.09,-37.78 421.84,-37.78 421.84,-37.78 C416.22,-37.78 410.29,-38.09 410.29,-49.95 C410.29,-49.95 410.29,-108.02 410.29,-108.02 C410.29,-142.67 385.62,-162.03 341.29,-162.03 C311.32,-162.03 286.66,-149.54 270.11,-129.56 C270.11,-129.56 294.77,-104.27 294.77,-104.27 C306.95,-117.07 322.56,-125.19 340.67,-125.19 C359.09,-125.19 365.02,-118.32 365.02,-111.45 C365.02,-111.45 365.02,-110.2 365.02,-110.2 C365.02,-102.09 361.27,-101.78 338.17,-98.97 C283.22,-91.79 262.93,-75.55 262.93,-42.46 C262.93,-14.05 284.47,4.06 319.13,4.06z "/><path id="_R_G_L_0_G_D_3_P_0" fill="#ffff00" fill-opacity="1" fill-rule="nonzero" d=" M201.92 0 C201.92,0 248.44,0 248.44,0 C248.44,0 248.44,-217.6 248.44,-217.6 C248.44,-217.6 201.92,-217.6 201.92,-217.6 C201.92,-217.6 201.92,0 201.92,0z "/><path id="_R_G_L_0_G_D_4_P_0" fill="#ffff00" fill-opacity="1" fill-rule="nonzero" d=" M59.32 -78.67 C59.32,-100.84 77.74,-118.01 100.53,-118.01 C123.01,-118.01 140.49,-100.84 140.49,-78.67 C140.49,-56.51 123.01,-39.34 100.53,-39.34 C77.74,-39.34 59.32,-56.51 59.32,-78.67z  M15.61 0 C15.61,0 62.13,0 62.13,0 C62.13,0 62.13,-20.6 62.13,-20.6 C66.5,-7.18 84.92,2.81 108.96,2.81 C153.6,2.81 187.01,-33.09 187.01,-78.67 C187.01,-123.94 153.6,-160.16 108.96,-160.16 C84.92,-160.16 66.5,-150.48 62.13,-136.74 C62.13,-136.74 62.13,-217.6 62.13,-217.6 C62.13,-217.6 15.61,-217.6 15.61,-217.6 C15.61,-217.6 15.61,0 15.61,0z "/></g></g></g></g><g id="time_group"/></svg>